<svg width="864" height="632" viewBox="0 0 864 632" fill="none" xmlns="http://www.w3.org/2000/svg">
<path d="M132.847 571.409C130.488 576.827 127.774 582.076 124.976 587.278C124.974 587.272 124.974 587.266 124.971 587.259C120.256 576.892 111.593 569.07 106.347 559.028C104.186 554.891 101.413 548.761 103.795 544.161C105.054 541.73 109.686 545.608 110.696 546.897C112.551 549.261 113.679 552.23 114.721 555.017C116.037 558.535 117.062 562.162 117.777 565.849C118.382 568.964 118.647 572.304 120.946 574.709C121.667 575.463 125.331 573.313 125.344 572.38C125.441 564.976 126.821 557.639 129.51 550.734C130.18 549.013 130.928 547.322 131.753 545.67C131.964 545.25 132.816 543.29 133.531 542.138C133.61 542.212 133.766 542.265 134.02 542.293C134.474 542.469 134.881 542.724 135.241 543.057C135.831 543.565 136.317 544.21 136.705 544.881C137.575 546.388 138 548.191 138.204 549.906C139.072 557.216 135.699 564.856 132.847 571.409V571.409ZM134.333 541.288C134.214 541.354 134.11 541.417 134.016 541.477C134.137 541.352 134.245 541.282 134.333 541.288ZM141.715 543.715C140.856 541.435 138.914 539.041 136.219 539.324C130.091 539.966 127.31 547.366 125.355 552.217C123.933 555.746 122.856 559.395 122.12 563.112C121.36 559.258 120.267 555.469 118.848 551.807C116.715 546.301 112.951 538.8 105.738 541.179C90.9988 546.041 102.736 563.811 108.298 571.294C112.72 577.243 117.495 582.994 120.585 589.791C120.844 590.359 123.296 589.299 124.431 588.286C123.702 589.635 122.97 590.983 122.236 592.329C121.736 593.246 123.051 592.841 123.49 592.685C124.387 592.365 125.879 591.637 126.367 590.74C129.632 584.749 132.9 578.751 135.779 572.562C138.635 566.424 141.586 559.844 142.504 553.082C142.925 549.973 142.833 546.679 141.715 543.715" fill="#F18FDF" fill-opacity="0.1"/>
<path d="M192.968 446.596C185.832 444.177 179.033 440.473 173.112 435.813C170.52 433.776 167.897 431.236 167.177 427.888C166.87 426.464 166.937 424.867 167.481 423.502C167.623 423.142 167.796 422.751 168.031 422.438C169.224 420.846 168.194 422.248 168.318 422.211C169.275 421.941 170.571 422.301 171.497 422.576C175.349 423.703 178.676 426.581 181.519 429.305C184.566 432.231 187.167 435.553 189.333 439.172C189.827 440.003 193.776 437.712 193.73 436.844C193.545 433.384 193.675 429.93 194.181 426.501C194.638 423.412 195.154 419.751 196.806 417.037C196.954 416.794 197.116 416.555 197.286 416.328C197.356 416.333 197.432 416.339 197.522 416.344C198.013 416.735 198.609 416.926 199.065 417.439C199.955 418.439 200.585 419.804 201.08 421.036C202.187 423.798 202.539 426.792 202.389 429.75C202.064 436.188 199.595 442.012 197.065 447.822C195.685 447.463 194.319 447.054 192.968 446.596V446.596ZM230.907 462.608C227.617 456.763 222.083 452.509 215.578 450.852C211.797 449.888 207.878 449.698 204.024 449.185C202.754 449.016 201.492 448.802 200.239 448.55C202.855 442.452 205.778 436.447 206.606 429.792C207.209 424.951 206.819 418.788 203.45 414.91C200.245 411.217 194.575 415.534 192.674 418.624C191.001 421.343 190.392 424.793 189.885 427.898C189.734 428.824 189.612 429.75 189.515 430.676C188.458 429.395 187.335 428.163 186.138 426.999C183.352 424.29 180.104 421.502 176.418 420.116C170.137 417.756 161.765 422.396 162.667 429.644C163.141 433.458 166.079 436.294 168.97 438.532C172.251 441.071 175.781 443.328 179.449 445.262C184.665 448.012 190.05 449.865 195.658 451.073C193.728 455.602 191.995 460.192 191.438 465.128C191.358 465.834 195.704 464.281 195.847 463.002C196.294 459.055 197.487 455.341 198.931 451.703C200.553 451.978 202.193 452.206 203.856 452.39C208.508 452.904 213.146 453.567 217.301 455.861C221.196 458.012 224.347 461.276 226.521 465.14C226.997 465.986 231.406 463.496 230.907 462.608" fill="#F18FDF" fill-opacity="0.1"/>
<path d="M85.9655 74.5022C83.2664 69.5874 81.5636 62.9585 85.2914 58.7738C88.9573 54.6526 95.7959 55.5096 100.512 58.3717C105.188 61.202 108.767 65.4926 112.253 69.7037C113.633 64.9635 115.506 60.3715 117.833 56.0122C119.42 53.0443 121.386 50.034 124.444 48.6215C129.706 46.1879 136.129 49.6478 139.191 54.5732C140.971 57.4353 141.976 60.7788 142.068 64.1488C142.253 70.8571 138.926 77.1574 135.141 82.7049C131.815 87.579 128.064 92.1626 123.941 96.3849C122.551 97.8091 121.059 99.2301 119.193 99.9226C114.405 101.697 104.507 94.1629 100.712 91.3436C94.6773 86.86 89.5875 81.0967 85.9655 74.5022" fill="#F18FDF" fill-opacity="0.1"/>
<path d="M393.363 451.846C394.256 443.912 395.704 436.052 397.697 428.314C397.727 428.794 397.743 429.253 397.762 429.663C398.12 437.326 396.13 444.727 393.363 451.846ZM383.776 455.61C383.882 455.488 383.958 455.374 383.991 455.273C384.787 452.803 385.584 450.332 386.38 447.861C386.047 450.664 385.714 453.466 385.382 456.268C385.314 456.835 387.501 456.06 388.826 455.159C388.659 456.737 388.514 458.318 388.391 459.901C386.867 458.501 385.313 457.075 383.776 455.61ZM370.663 439.136C371.163 438.884 371.667 438.574 372.075 438.253C372.872 440.282 373.67 442.312 374.467 444.341C374.604 444.684 375.663 444.393 376.709 443.875C377.464 445.872 378.056 447.932 378.479 450.052C378.56 450.459 379.422 450.151 380.351 449.655C380.236 450.404 380.135 451.155 380.043 451.907C376.321 448.032 372.948 443.841 370.663 439.136V439.136ZM377.266 435.79C377.057 435.871 376.834 435.976 376.607 436.098C376.145 434.922 375.684 433.746 375.222 432.571C376.033 433.569 376.697 434.653 377.266 435.79V435.79ZM393.396 423.441C393.965 422.702 393.619 422.791 394.646 422.952C395.46 423.079 396.049 423.465 396.484 423.997C395.726 424.392 394.832 424.968 394.583 425.692C393.833 427.879 393.103 430.073 392.389 432.272C392.58 430.662 392.772 429.051 392.963 427.441C393.014 427.014 391.954 427.304 390.858 427.828C391.332 426.861 391.837 425.906 392.387 424.982C392.701 424.456 393.022 423.928 393.396 423.441V423.441ZM400.589 421.132C398.711 419.352 395.787 420.23 393.779 421.269C390.962 422.726 389.121 424.952 387.619 427.7C385.873 430.892 384.463 434.235 383.388 437.684C382.063 433.641 380.318 429.801 376.665 427.302C374.456 425.789 371.685 425.014 369.049 425.765C366.57 426.472 363.623 428.278 363.477 431.109C363.154 437.35 367.055 443.805 370.709 448.542C375.295 454.487 380.945 459.57 386.428 464.665C386.893 465.097 388.037 464.611 389.044 463.949C390.26 463.538 392.283 462.232 392.539 461.68C395.673 454.924 398.797 448.087 400.644 440.844C401.518 437.417 402.097 433.904 402.196 430.364C402.27 427.754 402.668 423.102 400.589 421.132" fill="#F18FDF" fill-opacity="0.1"/>
<path d="M835.645 214.493C834.015 217.498 831.592 220.05 828.761 221.95C824.538 224.78 819.633 226.187 814.617 227.018C808.087 219.569 802.674 211.032 802.891 200.883C802.923 199.523 803.039 198.159 803.389 196.842C803.473 196.531 804.304 194.265 804.891 193.363C805.193 193.335 805.495 193.346 805.802 193.397C806.468 193.498 807.119 193.78 807.675 194.163C808.585 194.793 809.283 195.739 809.844 196.681C811.342 199.209 811.913 202.143 812.612 204.96C813.548 208.723 814.479 212.487 815.411 216.25C815.644 217.182 819.39 214.645 819.67 214.19C821.993 210.391 824.634 206.791 827.65 203.512C828.819 202.24 830.354 199.978 832.216 199.956C834.121 199.934 835.793 201.339 836.714 202.912C838.767 206.435 837.465 211.142 835.645 214.493V214.493ZM805.331 193.006C805.235 193.06 805.135 193.114 805.034 193.168C805.151 193.029 805.257 192.963 805.331 193.006ZM837.211 197.312C832.819 196.218 828.306 200.092 825.491 202.966C823.152 205.35 820.993 207.903 819.019 210.591C818.411 208.121 817.797 205.651 817.183 203.181C816.527 200.524 816.009 197.772 814.823 195.284C813.961 193.468 812.675 191.619 810.717 190.877C808.574 190.067 806.172 190.926 804.299 192.022C793.848 198.146 799.267 213.868 804.293 221.796C805.622 223.897 807.108 225.88 808.691 227.79C807.627 227.896 806.563 227.997 805.511 228.097C797.494 228.838 789.435 229.404 781.794 232.118C774.413 234.737 767.116 239.255 763.089 246.158C762.555 247.074 763.931 246.661 764.343 246.513C765.264 246.185 766.693 245.465 767.217 244.566C771.46 237.297 779.101 234.096 787.065 232.599C794.801 231.15 802.722 231.07 810.484 229.875C813.051 232.768 815.802 235.504 818.538 238.223C819.448 239.122 823.38 236.139 822.924 235.689C820.702 233.483 818.395 231.176 816.178 228.753C816.384 228.7 816.591 228.658 816.797 228.605C824.295 226.648 831.835 222.775 836.973 216.864C839.476 213.984 841.455 210.424 842.011 206.606C842.545 202.927 841.291 198.33 837.211 197.312" fill="#F18FDF" fill-opacity="0.1"/>
<path d="M626.054 60.4825C626.128 60.4457 626.202 60.4065 626.278 60.3663C626.233 60.4276 626.185 60.4869 626.14 60.5482C626.112 60.5261 626.082 60.5046 626.054 60.4825ZM615.312 51.9215C615.782 51.6012 616.205 51.2128 616.444 50.7362C616.741 50.1413 617.043 49.5489 617.345 48.9565C617.217 50.3845 617.029 51.8087 616.782 53.2294C616.561 53.0391 616.337 52.8513 616.119 52.6586C615.847 52.4183 615.578 52.1716 615.312 51.9215ZM609.935 35.5022C609.921 35.5272 610.523 34.6896 610.426 34.5788C610.555 34.5518 610.702 34.5449 610.857 34.5538C610.294 37.045 609.73 39.5363 609.167 42.0275C609.151 41.952 609.131 41.8775 609.117 41.8015C608.734 39.7212 608.865 37.3775 609.935 35.5022ZM627.571 37.6129C627.064 41.0016 626.524 44.3854 625.909 47.7545C625.586 47.9188 625.244 48.115 624.917 48.3209C624.973 47.6314 625.018 46.9409 625.05 46.2495C625.343 45.9949 625.538 45.762 625.564 45.5948C625.988 42.8588 626.661 40.191 627.571 37.6129ZM623.579 56.8711C623.548 57.4219 623.507 57.9731 623.454 58.5243C623.093 58.2526 622.734 57.9795 622.375 57.7068C622.851 57.4361 623.288 57.1399 623.579 56.8711ZM618.517 53.5261C619.136 53.2353 620.258 52.685 620.672 51.9794C620.532 53.3245 620.359 54.6668 620.173 56.009C619.289 55.3161 618.414 54.6133 617.556 53.8934C617.979 53.7723 618.421 53.5712 618.517 53.5261ZM611.695 46.9517C612.376 45.1897 613.128 43.4639 613.945 41.7701C613.844 42.7685 613.695 43.767 613.545 44.7689C613.319 46.2897 613.09 47.8109 612.862 49.3316C612.348 48.7098 611.868 48.064 611.43 47.3916C611.539 47.2523 611.635 47.1077 611.695 46.9517V46.9517ZM618.101 40.188C618.393 40.6431 618.672 41.1105 618.934 41.5877C618.483 41.8711 618.088 42.159 617.859 42.3708C617.959 41.6426 618.041 40.9143 618.101 40.188ZM614.33 35.9539C614.26 36.0083 614.201 36.0574 614.149 36.1025C614.168 36.0211 614.186 35.9401 614.204 35.8587C614.247 35.8896 614.287 35.9225 614.33 35.9539V35.9539ZM636.52 35.0903C636.279 32.6804 636 27.1021 632.973 26.5131C631.797 26.2841 629.835 27.6008 629.183 28.5262C626.71 32.0409 624.758 35.8583 623.375 39.8845C621.76 36.6581 619.485 33.6382 616.409 32.4225C612.242 30.7752 607.109 34.3704 605.516 38.1494C603.445 43.0633 606.085 48.678 609.361 52.357C613.33 56.8148 618.595 60.2442 623.334 63.8531C623.268 63.9207 623.205 63.9904 623.138 64.057C622.492 64.7063 622.831 64.9378 623.586 64.8334C624.35 64.7269 625.25 64.1968 625.935 63.6417C627.02 62.9571 628.015 61.9772 627.829 61.8336C627.808 61.8174 627.785 61.8007 627.764 61.7845C631.981 57.0683 634.888 51.2795 636.082 45.0426C636.708 41.7671 636.853 38.4084 636.52 35.0903Z" fill="#F18FDF" fill-opacity="0.1"/>
<path d="M629.119 243.977C626.66 246.65 624.013 249.163 621.364 251.664C620.219 250.367 619.017 249.099 617.812 247.827C618.227 247.548 618.54 247.295 618.621 247.152C622.153 240.893 625.713 234.632 629.823 228.737C629.525 229.625 629.122 230.478 628.898 231.057C628.086 233.166 627.105 235.206 626.108 237.231C624.115 241.28 622.066 245.304 620.983 249.712C620.816 250.391 622.401 249.737 622.534 249.681C623.402 249.311 624.368 248.76 624.942 247.991C627.739 244.244 630.713 240.648 633.854 237.197C632.684 239.683 630.997 241.936 629.119 243.977V243.977ZM607.097 224.638C607.188 224.27 607.356 223.912 607.495 223.559C607.559 223.573 607.622 223.593 607.686 223.608C608.142 223.98 608.969 224.137 609.492 224.495C609.949 224.814 610.379 225.187 610.779 225.574C611.316 226.094 611.813 226.658 612.285 227.251C612.033 227.403 611.849 227.526 611.803 227.56C610.144 228.811 608.599 230.179 607.164 231.66C607.147 231.587 607.126 231.518 607.109 231.44C606.601 229.203 606.535 226.874 607.097 224.638ZM619.393 238.021C620.244 237.702 621.369 236.898 621.985 236.309C621.03 237.844 620.098 239.394 619.181 240.957C619.252 239.978 619.323 239.002 619.393 238.021ZM613.02 241.96C613.802 241.028 614.584 240.096 615.365 239.163C615.23 241.031 615.095 242.898 614.96 244.764C614.209 243.934 613.477 243.091 612.777 242.229C612.861 242.142 612.943 242.053 613.02 241.96V241.96ZM615.732 235.633C615.102 236.383 614.472 237.133 613.842 237.888C614.101 236.451 614.361 235.015 614.622 233.578C614.75 232.862 614.884 232.156 614.998 231.449C615.617 232.577 616.195 233.735 616.764 234.872C616.237 235.216 615.824 235.525 615.732 235.633ZM607.818 233.857C607.897 233.769 607.973 233.686 608.042 233.592C609.021 232.327 610.078 231.15 611.212 230.052C611.276 232.121 610.78 234.186 610.411 236.226C610.281 236.942 610.15 237.663 610.021 238.384C609.143 236.957 608.391 235.456 607.818 233.857ZM625.628 228.473C626.742 226.163 627.817 223.598 629.416 221.568C630.429 220.283 631.969 221.558 633.091 222.97C631.976 223.108 630.21 224.569 629.824 225.054C627.217 228.33 624.852 231.768 622.62 235.299C623.554 232.994 624.549 230.714 625.628 228.473V228.473ZM635.435 231.592C635.384 232.131 635.302 232.661 635.197 233.185C632.335 236.049 629.596 239.026 626.977 242.11C628.029 239.6 629.268 237.158 630.469 234.706C631.46 232.68 632.424 230.63 633.203 228.512C633.544 227.59 634.251 226.109 634.313 224.834C634.337 224.878 634.358 224.922 634.378 224.966C635.356 227.026 635.649 229.336 635.435 231.592V231.592ZM639.231 224.868C638.678 222.548 637.199 219.508 634.729 218.718C632.238 217.919 629.206 219.645 627.353 221.185C625.186 222.99 623.983 225.599 622.725 228.061C622.003 229.473 621.319 230.9 620.659 232.337C619.756 230.65 618.846 228.963 617.878 227.31C616.618 225.162 615.106 223.044 612.929 221.734C610.626 220.351 608.3 220.866 606.136 222.264C604.018 223.632 603.06 225.594 602.729 228.056C601.207 239.345 611.339 247.05 618.016 254.843C617.975 254.883 617.933 254.923 617.891 254.962C617.223 255.605 617.6 255.841 618.339 255.738C618.458 255.721 618.579 255.694 618.702 255.659C618.972 255.987 619.237 256.316 619.492 256.646C620.142 257.485 624.025 254.905 623.557 254.299C623.195 253.831 622.821 253.369 622.439 252.912C626.791 248.805 631.423 244.767 635.048 240.019C638.316 235.735 640.525 230.302 639.231 224.868" fill="#F18FDF" fill-opacity="0.1"/>
<path d="M484.125 100.905C484.046 96.4321 484.966 91.9988 487.86 89.3605C491.397 86.1336 497.358 87.1977 500.896 90.4197C504.434 93.6466 506.107 98.3888 507.495 102.969C508.064 99.1342 508.682 95.1767 510.738 91.886C512.793 88.5954 516.697 86.1385 520.479 86.9869C523.834 87.7372 526.198 90.8219 527.414 94.0389C530.147 101.248 528.41 109.57 524.481 116.204C519.88 123.964 511.797 129.726 505.215 135.759C497.83 128.286 489.223 121.581 485.876 111.282C484.971 108.501 484.191 104.686 484.125 100.905" fill="#F18FDF" fill-opacity="0.1"/>
<path d="M647.161 528.057C646.165 533.951 643.619 539.483 640.127 544.31C637.331 548.183 633.947 551.553 630.248 554.546C629.944 542.77 633.024 530.102 639.98 520.446C640.622 519.558 641.662 517.896 642.746 517.626C644.026 517.302 645.581 518.656 646.248 519.558C648.024 521.971 647.631 525.286 647.161 528.057V528.057ZM607.161 524.854C606.856 523.535 606.636 522.167 606.704 520.804C606.744 520.048 606.989 517.788 607.661 517.513C608.583 517.13 610.682 518.214 611.477 518.744C612.683 519.548 613.66 520.632 614.552 521.76C618.162 526.296 620.752 531.617 622.562 537.105C623.95 541.311 624.877 545.649 625.481 550.034C618.005 542.646 609.564 535.413 607.161 524.854V524.854ZM649.834 516.64C647.69 514.399 644.86 514.924 642.373 516.258C636.355 519.489 632.961 526.463 630.493 532.524C629.522 534.908 628.713 537.345 628.07 539.825C627.629 538.022 627.124 536.232 626.53 534.471C624.529 528.493 621.493 521.701 616.76 517.361C614.567 515.35 611.82 514.453 608.931 515.399C606.395 516.228 603.859 518.013 602.991 520.632C602.118 523.27 602.771 526.375 603.56 528.949C604.566 532.235 606.219 535.295 608.191 538.105C612.988 544.921 619.59 550.162 625.191 556.269C625.373 556.468 625.721 556.468 626.138 556.348C626.148 556.483 626.162 556.618 626.172 556.754C626.182 556.918 626.991 556.731 627.884 556.374C627.045 556.998 626.192 557.608 625.329 558.199C624.951 558.457 623.769 559.207 624.298 559.694C624.76 560.117 626.712 558.847 627.021 558.634C638.41 550.829 649.044 539.971 651.295 525.786C651.771 522.785 652.119 519.033 649.834 516.64" fill="#F18FDF" fill-opacity="0.1"/>
<path d="M851.404 371.781C858.77 366.608 864.585 359.678 863.953 351.219C863.806 349.253 863.206 347.263 861.91 345.778C860.225 343.848 857.545 343.002 854.984 343.049C850.873 343.124 847.016 345.266 844.054 348.118C841.092 350.97 838.894 354.504 836.728 357.999C837.206 352.818 836.336 347.519 834.223 342.765C833.231 340.53 831.673 338.198 829.265 337.773C826.141 337.224 823.488 340.189 822.334 343.143C820.746 347.213 820.678 351.856 822.146 355.971C825.213 364.563 830.35 371.811 832.769 380.859C838.209 379.113 845.333 376.043 851.404 371.781Z" fill="#F18FDF" fill-opacity="0.1"/>
<path d="M791.174 477.509C789.678 484.841 786.549 491.736 782.144 497.768C778.319 494.345 774.789 490.809 772.776 485.994C770.938 481.595 770.323 476.705 771.024 471.989C771.358 469.74 771.981 467.537 772.904 465.459C773.091 465.038 773.427 464.575 773.652 464.121C774.598 464.816 775.21 465.33 775.574 466.592C776.382 469.397 775.819 472.96 775.626 475.838C775.42 478.907 775.065 481.957 774.589 484.998C774.437 485.974 778.221 483.752 778.548 483.277C780.624 480.26 782.723 477.157 785.46 474.693C786.583 473.683 788.207 472.167 789.855 472.655C791.964 473.28 791.508 475.87 791.174 477.509V477.509ZM794.76 470.758C791.998 468.004 786.171 472.291 783.998 473.981C782.242 475.348 780.697 476.925 779.277 478.613C779.54 476.331 779.729 474.04 779.833 471.742C779.952 469.117 780.653 464.989 778.923 462.72C777.164 460.41 774.353 461.334 772.312 462.706C770.159 464.152 769.068 466.582 768.203 468.946C766.307 474.132 766.171 479.937 767.643 485.248C769.396 491.569 773.477 496.008 778.265 500.279C778.85 500.804 780.491 499.852 781.507 498.999C781.767 499.146 782.537 498.94 782.738 498.872C783.689 498.528 784.778 497.891 785.406 497.067C788.403 493.114 790.87 488.774 792.695 484.154C793.641 481.751 794.416 479.273 794.995 476.752C795.402 474.996 796.261 472.251 794.76 470.758" fill="#F18FDF" fill-opacity="0.1"/>
<path d="M388.034 223.942C385.284 219.747 383.122 214.61 382.638 209.59C382.053 203.511 386.565 194.698 393.843 197.835C398.171 199.7 401.431 204.245 402.319 208.791C401.568 204.935 408.288 198.983 411.476 197.809C415.792 196.22 419.898 197.991 421.404 202.411C425.509 214.442 416.661 227.604 408.293 235.54C402.564 240.976 398.594 236.035 394.391 231.702C392.06 229.298 389.873 226.746 388.034 223.942" fill="#F18FDF" fill-opacity="0.1"/>
<path d="M323.49 75.0342C324.319 67.6795 325.661 60.3931 327.508 53.2209C327.536 53.6652 327.551 54.0909 327.569 54.4715C327.9 61.574 326.056 68.4348 323.49 75.0342ZM314.604 78.5229C314.702 78.4101 314.773 78.3047 314.803 78.211C315.541 75.9208 316.279 73.6306 317.018 71.3404C316.709 73.9381 316.401 76.5353 316.092 79.133C316.029 79.6592 318.057 78.9402 319.285 78.1051C319.13 79.568 318.996 81.0333 318.882 82.5006C317.469 81.2035 316.029 79.8808 314.604 78.5229ZM302.448 63.2527C302.911 63.0187 303.379 62.7314 303.758 62.4342C304.496 64.3149 305.235 66.1961 305.975 68.0768C306.102 68.3951 307.083 68.1253 308.053 67.6447C308.753 69.4965 309.302 71.4056 309.694 73.3712C309.769 73.7488 310.568 73.4624 311.429 73.0034C311.322 73.6973 311.228 74.3932 311.143 75.0906C307.693 71.4988 304.566 67.6138 302.448 63.2527V63.2527ZM308.569 60.1504C308.376 60.2254 308.169 60.3235 307.959 60.4358C307.53 59.3456 307.103 58.2559 306.675 57.1667C307.426 58.0921 308.042 59.0965 308.569 60.1504V60.1504ZM323.521 48.7038C324.048 48.0187 323.728 48.1011 324.68 48.2502C325.435 48.3684 325.98 48.7254 326.383 49.2192C325.681 49.5846 324.852 50.1186 324.622 50.7905C323.926 52.8178 323.25 54.8515 322.588 56.8896C322.765 55.3969 322.943 53.9041 323.12 52.4113C323.167 52.016 322.185 52.2842 321.169 52.7702C321.608 51.8733 322.076 50.9886 322.586 50.1324C322.877 49.6444 323.174 49.1545 323.521 48.7038V48.7038ZM330.188 46.5627C328.448 44.913 325.738 45.7265 323.876 46.6897C321.265 48.0403 319.558 50.1044 318.166 52.6511C316.548 55.6102 315.241 58.7091 314.244 61.9065C313.016 58.1583 311.398 54.599 308.012 52.2823C305.964 50.8802 303.396 50.1613 300.952 50.8577C298.654 51.5133 295.923 53.1876 295.787 55.8112C295.487 61.597 299.104 67.58 302.491 71.9711C306.742 77.4823 311.98 82.1941 317.062 86.9167C317.493 87.3173 318.553 86.8667 319.487 86.2532C320.614 85.8721 322.49 84.6613 322.727 84.1503C325.632 77.8873 328.528 71.5493 330.24 64.8357C331.05 61.6588 331.587 58.4021 331.679 55.1208C331.747 52.7011 332.116 48.389 330.188 46.5627" fill="#F18FDF" fill-opacity="0.1"/>
<path d="M544.635 428.954C543.256 439.639 535.665 447.491 529.017 455.489C522.967 448.079 515.517 441.532 511.981 432.465C510.172 427.826 508.954 421.234 512.444 417.046C514.025 415.15 516.964 416.093 518.804 417.201C520.947 418.493 522.57 420.496 523.782 422.657C526.565 427.615 527.166 433.448 527.722 439.002C527.783 439.605 531.606 437.688 531.799 436.845C533.185 430.797 534.575 424.496 537.885 419.158C538.713 417.824 539.432 416.405 541.242 416.951C542.731 417.4 543.394 418.714 543.867 420.073C544.855 422.912 545.018 425.99 544.635 428.954V428.954ZM548.827 422.072C548.622 419.725 548.155 416.269 546.006 414.87C541.78 412.12 536.102 417.322 534.056 420.63C532.607 422.97 531.507 425.471 530.608 428.05C530.002 425.161 529.086 422.358 527.559 419.814C524.771 415.169 519.903 412.009 514.503 414.198C508.942 416.453 505.882 421.366 506.218 427.333C506.55 433.241 509.34 438.693 512.751 443.406C516.791 448.991 521.816 453.768 526.042 459.202C526.021 459.231 525.998 459.255 525.976 459.285C525.586 459.8 526.025 459.839 526.48 459.775C526.634 459.977 526.789 460.177 526.941 460.379C527.56 461.217 531.478 458.672 531.006 458.034C530.783 457.735 530.556 457.436 530.327 457.137C537.028 448.506 545.65 440.645 548.239 429.633C548.822 427.154 549.049 424.611 548.827 422.072" fill="#F18FDF" fill-opacity="0.1"/>
<path d="M108.797 271.66C102.267 266.359 96.853 259.248 95.1933 251.002C94.8001 249.049 94.6679 246.858 95.8117 245.226C97.2855 243.124 100.316 242.782 102.818 243.359C110.095 245.036 114.605 252.114 118.329 258.586C118.039 253.906 117.753 249.161 118.696 244.567C119.638 239.974 121.972 235.472 125.906 232.919C129.84 230.366 135.516 230.254 138.962 233.435C143.111 237.263 142.673 244.069 140.334 249.207C137.55 255.322 132.699 260.258 129.43 266.129C128.04 268.625 126.993 271.391 126.569 274.22C126.195 276.721 127.242 280.007 126.167 282.062C120.062 280.027 113.776 275.706 108.797 271.66" fill="#F18FDF" fill-opacity="0.1"/>
<path d="M245.193 181.914C241.284 178.235 237.768 174.08 235.91 168.978C235.063 166.413 234.57 163.387 235.929 160.893C236.538 159.774 237.117 159.551 238.359 159.868C239.46 160.149 240.374 160.812 241.132 161.641C244.209 165.001 244.091 169.995 246.889 173.535C247.553 174.376 250.769 172.145 250.965 171.377C252.441 165.621 254.526 160.012 257.304 154.754C257.523 154.341 257.781 153.94 258.006 153.529C258.14 153.564 258.271 153.599 258.303 153.627C259.312 154.538 260.122 155.065 260.764 156.361C261.996 158.849 262.309 161.962 262.256 164.698C262.08 173.629 257.802 181.42 253.695 189.155C250.88 186.722 247.894 184.455 245.193 181.914V181.914ZM255.887 199.88C256.675 202.597 256.841 205.704 255.336 208.196C255.317 208.226 255.277 208.269 255.234 208.315C255.212 208.315 255.192 208.316 255.167 208.316C254.104 208.327 253.088 208.449 252.088 207.951C249.31 206.566 251.088 202.437 251.808 200.242C252.334 198.639 252.952 197.075 253.628 195.535C254.612 196.774 255.388 198.156 255.887 199.88V199.88ZM255.372 208.307C255.421 208.217 255.633 208.28 255.372 208.307V208.307ZM257.878 153.495C257.788 153.561 257.711 153.562 257.675 153.418C257.681 153.438 257.769 153.466 257.878 153.495ZM265.407 169.562C266.584 164.732 267.114 158.632 264.829 154.015C263.875 152.088 262.163 150.454 259.88 150.903C257.243 151.422 255.044 153.368 253.779 155.655C251.801 159.234 250.163 163.004 248.824 166.875C247.134 162.288 245.682 156.804 240.314 157.155C237.473 157.34 234.394 159.277 232.683 161.501C230.475 164.373 230.769 168.065 231.845 171.325C235.121 180.316 243.244 186.101 250.208 192.127C250.668 192.524 251.108 192.915 251.531 193.309C251.065 194.234 250.612 195.16 250.179 196.091C248.988 198.655 247.931 201.29 247.173 204.017C246.571 206.181 245.69 209.038 248.121 210.384C251.271 212.126 255.814 210.12 258.158 207.873C262.256 203.947 260.776 196.101 257.123 192.347C256.685 191.898 256.236 191.46 255.779 191.028C256.846 188.932 257.97 186.863 259.066 184.788C261.642 179.918 264.096 174.943 265.407 169.562" fill="#F18FDF" fill-opacity="0.1"/>
<path d="M313.192 533.174C314.104 529.061 314.033 525.034 312.018 521.971C309.348 517.913 303.58 518.24 299.952 520.706C296.826 522.83 294.788 526.186 292.979 529.503C292.862 524.438 288.156 513.828 281.5 515.132C280.025 515.421 278.991 516.735 278.228 518.031C273.639 525.838 274.804 534.691 277.853 542.814C278.486 544.501 287.692 563.308 286.599 563.838C293.668 560.405 301.621 555.323 306.128 548.694C308.628 545.016 311.899 539.009 313.192 533.174" fill="#F18FDF" fill-opacity="0.1"/>
<path d="M708.807 114.953C708.365 116.248 707.855 117.518 707.286 118.761C703.058 127.977 695.593 135.246 687.225 140.839C683.011 130.146 678.739 118.971 678.832 107.325C678.852 104.762 679.024 102.129 679.617 99.6283C679.877 98.5426 680.221 97.4421 680.77 96.4647C681.422 95.303 681.771 95.1308 683.11 95.377C688.716 96.4044 689.918 102.741 689.628 107.491C689.231 113.986 687.661 120.43 685.346 126.498C685.096 127.157 686.828 126.496 686.896 126.466C687.681 126.132 688.868 125.555 689.305 124.776C692.552 119.024 696.765 113.506 701.969 109.375C703.303 108.313 704.75 107.514 706.526 107.775C707.948 107.985 709.43 108.846 709.744 110.346C710.048 111.812 709.273 113.588 708.807 114.953V114.953ZM713.422 107.066C712.044 104.85 708.846 104.919 706.663 105.551C703.808 106.38 701.189 108.08 698.928 109.978C696.368 112.126 694.003 114.503 691.85 117.06C692.929 112.982 693.631 108.79 693.758 104.618C693.92 99.5283 691.983 92.9549 685.851 92.7107C680.618 92.5018 676.532 97.1106 675.473 101.839C674.045 108.205 674.727 115.138 676.056 121.456C677.645 128.986 680.407 136.204 683.222 143.348C683.036 143.457 682.855 143.566 682.673 143.673C682.339 143.865 680.633 144.833 680.956 145.394C681.27 145.943 683.061 144.913 683.306 144.77C683.634 144.578 683.963 144.379 684.297 144.183C685.361 143.922 687.166 142.939 687.544 142.175C695.745 136.899 703.318 130.348 708.517 122.071C709.969 119.761 711.23 117.318 712.23 114.781C713.059 112.685 714.776 109.236 713.422 107.066Z" fill="#F18FDF" fill-opacity="0.1"/>
<path d="M708.655 94.2865C707.894 94.6524 706.703 95.2551 706.379 96.1133C705.854 97.4928 705.422 98.8973 705.079 100.333C704.902 101.071 706.712 100.273 706.889 100.189C707.556 99.8683 708.969 99.1945 709.17 98.3618C709.508 96.9264 709.94 95.5219 710.465 94.1423C710.734 93.4337 708.782 94.2267 708.655 94.2865" fill="#F18FDF" fill-opacity="0.1"/>
<path d="M719.612 97.328C719.485 97.1029 718.94 97.2441 718.793 97.2833C717.822 97.5511 716.596 98.1631 715.919 98.9429C715.571 99.3494 715.203 99.7457 714.825 100.128C714.658 100.297 714.487 100.465 714.315 100.629C714.207 100.731 714.094 100.831 713.986 100.932C713.962 100.955 713.928 100.985 713.879 101.028C713.628 101.244 712.564 102.293 713.579 102.199C714.57 102.107 715.742 101.427 716.473 100.79C717.459 99.9374 718.391 99.0429 719.245 98.0597C719.343 97.9439 719.75 97.5595 719.612 97.328" fill="#F18FDF" fill-opacity="0.1"/>
<path d="M469.788 610.103C460.409 601.016 450.452 590.737 446.862 577.815C446.136 575.211 445.591 572.486 446.003 569.815C447.195 562.013 453.773 563.18 457.442 568.526C462.484 575.868 466.423 583.962 469.096 592.458C470.361 583.4 471.642 574.299 474.31 565.552C475.134 562.85 476.88 559.641 479.691 559.919C481.908 560.137 483.237 562.492 483.772 564.65C484.659 568.215 484.434 571.956 484.066 575.611C482.506 589.923 481.731 603.855 479.465 618.106C475.992 615.743 472.804 613.026 469.788 610.103" fill="#F18FDF" fill-opacity="0.1"/>
<path d="M801.099 602.253C803.333 596.546 804.076 590.286 799.688 586.112C791.718 578.534 781.97 590.246 779.106 597.668C778.829 598.386 778.461 599.235 777.701 599.363C777 595.216 776.299 591.07 775.599 586.923C775.334 585.361 775.058 583.763 774.283 582.381C772.873 579.866 770.377 579.618 767.758 579.823C764.428 580.086 761.397 582.121 759.43 584.82C756.528 588.801 755.803 594.092 756.718 598.933C758.929 610.634 769.205 620.329 775.407 630.093C775.668 630.505 775.997 630.961 776.484 631.005C776.905 631.044 777.278 630.755 777.601 630.48C786.737 622.673 796.54 613.9 801.099 602.253" fill="#F18FDF" fill-opacity="0.1"/>
<path d="M751.569 351.455C749.704 358.027 746.157 364.181 742.871 370.125C741.38 372.822 739.863 375.505 738.336 378.184C733.003 371.489 728.464 364.137 725.025 356.297C724.103 354.198 723.209 351.846 723.926 349.552C723.982 349.374 724.213 349.028 724.366 348.753C724.652 348.76 725.021 348.746 725.199 348.797C726.401 349.14 727.397 349.972 728.135 350.955C729.491 352.761 730.056 355.071 730.726 357.188C731.561 359.828 732.397 362.469 733.233 365.109C733.525 366.031 737.082 363.547 737.31 362.951C739.703 356.671 742.842 350.719 746.728 345.232C747.588 344.019 748.48 342.826 749.409 341.665C749.815 341.158 750.241 340.352 750.843 340.334C751.551 340.312 752.016 341.198 752.212 341.744C753.254 344.631 752.372 348.625 751.569 351.455V351.455ZM754.392 337.758C752.228 337.382 749.601 339.176 748.045 340.473C745.999 342.177 744.426 344.549 742.898 346.704C740.25 350.444 737.942 354.413 735.966 358.543C735.437 356.868 734.908 355.194 734.372 353.521C733.586 351.066 732.721 348.415 730.432 346.949C726.439 344.391 720.249 347.988 719.625 352.478C719.239 355.252 720.617 357.955 721.754 360.388C723.015 363.083 724.395 365.72 725.89 368.293C728.803 373.307 732.158 378.044 735.877 382.491C734.629 384.667 733.381 386.844 732.139 389.022C731.654 389.871 732.91 389.491 733.301 389.352C734.149 389.05 735.493 388.382 735.968 387.55C736.947 385.833 737.929 384.119 738.911 382.405C739.869 381.786 740.669 381.015 740.445 380.75C740.328 380.613 740.213 380.472 740.096 380.333C742.089 376.85 744.077 373.363 746.032 369.858C749.097 364.361 752.223 358.767 754.502 352.888C755.631 349.975 756.496 346.918 756.63 343.781C756.714 341.816 756.946 338.2 754.392 337.758" fill="#F18FDF" fill-opacity="0.1"/>
<path d="M29.823 422.552C24.9916 418.584 20.9254 413.476 19.1056 407.495C17.6489 402.696 18.2424 396.494 22.6225 394.044C26.2375 392.019 31.01 393.557 33.9334 396.5C36.8519 399.443 38.3478 403.471 39.7654 407.368C40.6188 409.717 41.4723 412.065 42.3258 414.414C42.7476 405.205 44.3908 396.053 47.2062 387.274C48.094 384.501 49.7029 381.282 52.6115 381.122C56.0597 380.933 57.904 385.094 58.4288 388.503C60.1259 399.467 58.2817 410.905 53.4797 420.887C51.7581 424.459 49.0996 431.304 44.6017 431.322C40.2167 431.338 33.0308 425.187 29.823 422.552" fill="#F18FDF" fill-opacity="0.1"/>
<path d="M856.5 84.6487C859.194 81.644 861.512 78.2675 862.836 74.4669C864.698 69.1224 864.816 57.7014 856.411 58.1673C850.696 58.4841 845.541 66.4399 842.748 70.6692C845.084 67.1324 845.153 57.8642 842.557 54.631C839.392 50.6896 832.853 50.36 829.572 54.2813C825.095 59.6312 825.951 69.0803 827.278 75.3834C828.25 79.9952 829.579 84.5893 829.598 89.3026C829.619 94.4867 827.624 97.8111 824.771 101.805C826.455 102.366 828.601 101.448 830.21 100.834C839.763 97.1893 848.218 93.3489 855.434 85.7987C855.795 85.422 856.151 85.0385 856.5 84.6487Z" fill="#F18FDF" fill-opacity="0.1"/>
<path d="M32.4683 157.544C32.0259 160.072 30.4583 162.593 29.209 164.796C25.3968 171.52 20.3496 177.569 14.3322 182.422C11.1052 179.168 8.42415 175.406 6.60784 171.098C4.51979 166.146 3.61286 160.651 4.4418 155.315C4.81703 152.897 5.44731 150.248 6.95902 148.267C7.01003 148.2 7.07282 148.145 7.13266 148.102C7.32788 148.145 7.77669 148.161 7.75167 148.155C8.31427 148.302 8.8342 148.387 9.36737 148.637C10.5294 149.181 11.4883 150.102 12.1784 151.176C15.7458 156.729 11.66 163.994 13.8324 170.004C14.1595 170.909 17.5057 168.524 17.7799 168.095C19.557 165.308 21.3335 162.522 23.1106 159.736C24.2961 157.877 25.6896 155.06 27.6482 153.883C30.163 152.371 32.9176 154.977 32.4683 157.544V157.544ZM36.5286 153.509C35.8959 151.269 33.2781 150.781 31.2759 151.095C29.0064 151.451 26.8207 152.7 25.0496 154.12C23.0164 155.749 21.4464 157.839 20.0426 160.014C19.1131 161.454 18.1909 162.901 17.2707 164.347C16.9647 158.891 19.3853 152.733 15.8032 148.209C12.2122 143.675 5.97606 145.838 2.98501 149.938C-0.315543 154.461 -0.429327 161.307 0.507523 166.596C1.61507 172.847 4.65174 178.586 8.86707 183.297C9.4385 183.935 10.0295 184.555 10.6373 185.156C9.75683 185.756 8.86216 186.338 7.94689 186.888C7.61727 187.086 5.90494 188.045 6.23161 188.61C6.547 189.156 8.33732 188.131 8.58061 187.985C9.60133 187.372 10.6054 186.733 11.5952 186.072C15.6609 189.851 20.4251 192.852 25.4204 195.255C26.4524 195.75 29.8245 193.014 29.1717 192.7C24.1774 190.298 19.3789 187.22 15.3362 183.401C21.3473 178.817 26.6235 173.308 30.806 166.968C32.1657 164.907 33.3998 162.767 34.5166 160.565C35.5418 158.544 37.1957 155.872 36.5286 153.509" fill="#F18FDF" fill-opacity="0.1"/>
<path d="M437.758 29.4184C435.472 33.3642 432.746 37.059 430.925 41.2406C423.792 35.1209 412.931 33.7066 408.728 24.3908C407.597 21.8799 406.96 19.0405 407.429 16.2942C407.589 15.3624 408.014 13.239 408.874 12.7045C409.764 12.1503 411.622 12.7093 412.52 13.0085C418.369 14.9701 420.163 21.522 422.568 26.5118C422.976 27.3583 426.527 25.097 426.645 24.3516C427.613 18.1921 429.309 12.0669 431.935 6.39295C432.492 5.18655 433.418 2.79828 434.897 2.61683C436.285 2.44519 437.702 3.42597 438.551 4.40188C440.393 6.52533 440.74 9.59529 441.088 12.268C441.902 18.5109 440.911 23.9789 437.758 29.4184V29.4184ZM445.455 13.0673C445.21 8.84005 444.819 1.14561 439.468 0.115764C434.887 -0.762061 430.27 3.52407 428.386 7.24134C426.562 10.8409 425.181 14.7053 424.147 18.6531C422.743 15.7106 421.032 12.9594 418.119 11.2921C413.952 8.9087 408.993 10.1789 405.717 13.5136C402.269 17.0298 402.787 22.5763 404.663 26.7349C406.767 31.3997 410.773 34.3789 415.161 36.7397C420.041 39.3653 425.364 41.4368 429.042 45.7636C429.76 46.6081 433.564 43.955 433.106 43.4175C432.913 43.189 432.712 42.9683 432.509 42.7511C433.208 42.3852 434.024 41.8551 434.258 41.1857C435.975 36.2777 439.169 32.1691 441.73 27.6991C444.37 23.0912 445.765 18.4226 445.455 13.0673" fill="#F18FDF" fill-opacity="0.1"/>
</svg>
