<svg width="297" height="54" viewBox="0 0 297 54" fill="none" xmlns="http://www.w3.org/2000/svg">
<path d="M253.731 6.36994C253.43 5.67283 252.996 5.04112 252.453 4.51017C251.91 3.97764 251.27 3.55444 250.567 3.26359C249.838 2.9608 249.056 2.80582 248.267 2.80763C247.159 2.80763 246.079 3.11086 245.14 3.68361C244.916 3.82062 244.702 3.97111 244.5 4.13507C244.298 3.97111 244.084 3.82062 243.86 3.68361C242.921 3.11086 241.841 2.80763 240.733 2.80763C239.936 2.80763 239.163 2.96037 238.433 3.26359C237.728 3.55558 237.092 3.9756 236.547 4.51017C236.003 5.04052 235.569 5.67238 235.269 6.36994C234.956 7.09543 234.797 7.86584 234.797 8.65871C234.797 9.40666 234.95 10.1861 235.253 10.9789C235.507 11.6415 235.871 12.3288 236.335 13.0229C237.072 14.1212 238.085 15.2667 239.343 16.4279C241.427 18.3528 243.492 19.6825 243.579 19.7364L244.111 20.0778C244.347 20.2283 244.65 20.2283 244.886 20.0778L245.419 19.7364C245.506 19.6803 247.568 18.3528 249.655 16.4279C250.913 15.2667 251.926 14.1212 252.662 13.0229C253.127 12.3288 253.493 11.6415 253.745 10.9789C254.048 10.1861 254.201 9.40666 254.201 8.65871C254.203 7.86584 254.044 7.09543 253.731 6.36994V6.36994Z" fill="#FF59C7"/>
<path d="M41.932 42H31.372V20.44H41.932V42ZM31.812 30.868L31.9 32.98C31.812 33.596 31.5187 34.3147 31.02 35.136C30.5507 35.9573 29.8907 36.808 29.04 37.688C28.1893 38.568 27.148 39.3893 25.916 40.152C24.684 40.8853 23.276 41.4867 21.692 41.956C20.108 42.4253 18.348 42.66 16.412 42.66C14.476 42.66 12.6427 42.4547 10.912 42.044C9.18133 41.6627 7.64133 41.0173 6.292 40.108C4.94267 39.1987 3.88667 37.9813 3.124 36.456C2.36133 34.9013 1.98 32.9653 1.98 30.648V20.44H12.54V29.548C12.54 31.1613 12.804 32.408 13.332 33.288C13.8893 34.168 14.7547 34.784 15.928 35.136C17.1013 35.4587 18.612 35.62 20.46 35.62C22.1907 35.62 23.7893 35.3707 25.256 34.872C26.752 34.344 28.0573 33.7133 29.172 32.98C30.316 32.2467 31.196 31.5427 31.812 30.868ZM45.8941 20.44H56.4541V42H45.8941V20.44ZM72.2941 19.78C74.0247 19.78 75.6967 19.9707 77.3101 20.352C78.9234 20.704 80.3607 21.32 81.6221 22.2C82.9127 23.08 83.9394 24.2827 84.7021 25.808C85.4647 27.3333 85.8461 29.2547 85.8461 31.572V42H75.2861V32.892C75.2861 30.692 74.7141 29.1373 73.5701 28.228C72.4261 27.2893 70.3581 26.82 67.3661 26.82C65.7821 26.82 64.2421 26.996 62.7461 27.348C61.2794 27.7 59.9594 28.1253 58.7861 28.624C57.6127 29.0933 56.6887 29.5627 56.0141 30.032L55.9261 28.36C56.0434 27.832 56.4394 27.0987 57.1141 26.16C57.8181 25.192 58.8301 24.224 60.1501 23.256C61.4701 22.288 63.1274 21.4667 65.1221 20.792C67.1461 20.1173 69.5367 19.78 72.2941 19.78ZM101.158 19.78C102.889 19.78 104.561 19.9707 106.174 20.352C107.787 20.704 109.225 21.32 110.486 22.2C111.777 23.08 112.803 24.2827 113.566 25.808C114.329 27.3333 114.71 29.2547 114.71 31.572V42H104.15V32.892C104.15 30.692 103.578 29.1373 102.434 28.228C101.29 27.2893 99.2221 26.82 96.2301 26.82C94.6461 26.82 93.1061 26.996 91.6101 27.348C90.1434 27.7 88.8234 28.1253 87.6501 28.624C86.4767 29.0933 85.5527 29.5627 84.8781 30.032L84.7901 27.92C84.9074 27.48 85.3474 26.82 86.1101 25.94C86.8727 25.06 87.9434 24.1507 89.3221 23.212C90.7301 22.2733 92.4167 21.4667 94.3821 20.792C96.3767 20.1173 98.6354 19.78 101.158 19.78ZM134.655 42.616C131.487 42.616 128.671 42.176 126.207 41.296C123.743 40.3867 121.792 39.0813 120.355 37.38C118.947 35.6787 118.243 33.6253 118.243 31.22C118.243 28.6973 118.947 26.5853 120.355 24.884C121.792 23.1827 123.743 21.9067 126.207 21.056C128.671 20.2053 131.487 19.78 134.655 19.78C138.175 19.78 141.211 20.264 143.763 21.232C146.344 22.1707 148.324 23.5053 149.703 25.236C151.111 26.9373 151.815 28.932 151.815 31.22C151.815 32.9213 151.419 34.476 150.627 35.884C149.835 37.2627 148.691 38.4653 147.195 39.492C145.699 40.4893 143.895 41.2667 141.783 41.824C139.671 42.352 137.295 42.616 134.655 42.616ZM138.615 35.928C140.844 35.928 142.883 35.796 144.731 35.532C146.608 35.2387 148.104 34.7547 149.219 34.08C150.363 33.4053 150.935 32.452 150.935 31.22C150.935 29.9587 150.363 28.9907 149.219 28.316C148.104 27.6413 146.608 27.172 144.731 26.908C142.883 26.644 140.844 26.512 138.615 26.512C135.623 26.512 133.306 26.908 131.663 27.7C130.02 28.4627 129.199 29.636 129.199 31.22C129.199 32.2467 129.566 33.112 130.299 33.816C131.032 34.52 132.103 35.048 133.511 35.4C134.919 35.752 136.62 35.928 138.615 35.928ZM150.935 20.44H161.495V42H151.551C151.551 42 151.492 41.6627 151.375 40.988C151.287 40.3133 151.184 39.3453 151.067 38.084C150.979 36.8227 150.935 35.3413 150.935 33.64V20.44ZM165.476 20.44H176.036V42H165.476V20.44ZM191.876 19.78C193.607 19.78 195.279 19.9707 196.892 20.352C198.505 20.704 199.943 21.32 201.204 22.2C202.495 23.08 203.521 24.2827 204.284 25.808C205.047 27.3333 205.428 29.2547 205.428 31.572V42H194.868V32.892C194.868 30.692 194.296 29.1373 193.152 28.228C192.008 27.2893 189.94 26.82 186.948 26.82C185.364 26.82 183.824 26.996 182.328 27.348C180.861 27.7 179.541 28.1253 178.368 28.624C177.195 29.0933 176.271 29.5627 175.596 30.032L175.508 28.36C175.625 27.832 176.021 27.0987 176.696 26.16C177.4 25.192 178.412 24.224 179.732 23.256C181.052 22.288 182.709 21.4667 184.704 20.792C186.728 20.1173 189.119 19.78 191.876 19.78ZM220.74 19.78C222.471 19.78 224.143 19.9707 225.756 20.352C227.369 20.704 228.807 21.32 230.068 22.2C231.359 23.08 232.385 24.2827 233.148 25.808C233.911 27.3333 234.292 29.2547 234.292 31.572V42H223.732V32.892C223.732 30.692 223.16 29.1373 222.016 28.228C220.872 27.2893 218.804 26.82 215.812 26.82C214.228 26.82 212.688 26.996 211.192 27.348C209.725 27.7 208.405 28.1253 207.232 28.624C206.059 29.0933 205.135 29.5627 204.46 30.032L204.372 27.92C204.489 27.48 204.929 26.82 205.692 25.94C206.455 25.06 207.525 24.1507 208.904 23.212C210.312 22.2733 211.999 21.4667 213.964 20.792C215.959 20.1173 218.217 19.78 220.74 19.78ZM249.881 9.132V15.732H238.705V9.132H249.881ZM239.013 20.44H249.573V42H239.013V20.44ZM254.293 20.44H264.853V42H254.293V20.44ZM280.693 19.78C282.423 19.78 284.095 19.9707 285.709 20.352C287.322 20.704 288.759 21.32 290.021 22.2C291.311 23.08 292.338 24.2827 293.101 25.808C293.863 27.3333 294.245 29.2547 294.245 31.572V42H283.685V32.892C283.685 30.692 283.113 29.1373 281.969 28.228C280.825 27.2893 278.757 26.82 275.765 26.82C274.181 26.82 272.641 26.996 271.145 27.348C269.678 27.7 268.358 28.1253 267.185 28.624C266.011 29.0933 265.087 29.5627 264.413 30.032L264.325 28.36C264.442 27.832 264.838 27.0987 265.513 26.16C266.217 25.192 267.229 24.224 268.549 23.256C269.869 22.288 271.526 21.4667 273.521 20.792C275.545 20.1173 277.935 19.78 280.693 19.78Z" fill="#FF59C7"/>
</svg>
