<svg width="416" height="500" viewBox="0 0 416 500" fill="none" xmlns="http://www.w3.org/2000/svg">
<mask id="mask0_1814_1793" style="mask-type:alpha" maskUnits="userSpaceOnUse" x="18" y="59" width="397" height="323">
<path d="M401.38 96.5046C399.618 92.4241 397.077 88.7263 393.899 85.6184C390.719 82.5011 386.97 80.0239 382.855 78.3214C378.588 76.549 374.012 75.6418 369.392 75.6524C362.91 75.6524 356.586 77.4274 351.09 80.78C349.776 81.582 348.527 82.4629 347.343 83.4227C346.16 82.4629 344.911 81.582 343.596 80.78C338.1 77.4274 331.776 75.6524 325.295 75.6524C320.627 75.6524 316.104 76.5465 311.831 78.3214C307.703 80.0306 303.982 82.4892 300.787 85.6184C297.606 88.7228 295.064 92.4214 293.306 96.5046C291.479 100.751 290.545 105.261 290.545 109.902C290.545 114.28 291.439 118.842 293.214 123.484C294.7 127.362 296.83 131.385 299.552 135.448C303.864 141.877 309.794 148.582 317.156 155.38C329.357 166.647 341.44 174.431 341.953 174.746L345.069 176.745C346.449 177.626 348.224 177.626 349.605 176.745L352.721 174.746C353.233 174.418 365.303 166.647 377.517 155.38C384.88 148.582 390.809 141.877 395.122 135.448C397.843 131.385 399.986 127.362 401.459 123.484C403.234 118.842 404.128 114.28 404.128 109.902C404.141 105.261 403.208 100.751 401.38 96.5046Z" fill="url(#paint0_linear_1814_1793)"/>
<path d="M386.863 375H289.437V176.088H386.863V375ZM293.496 272.297L294.308 291.782C293.496 297.465 290.79 304.095 286.189 311.673C281.859 319.251 275.77 327.099 267.922 335.218C260.074 343.337 250.466 350.914 239.1 357.95C227.734 364.716 214.743 370.264 200.13 374.594C185.516 378.924 169.278 381.089 151.416 381.089C133.555 381.089 116.641 379.195 100.674 375.406C84.7066 371.888 70.4986 365.934 58.0497 357.544C45.6008 349.155 35.8582 337.924 28.8219 323.851C21.7856 309.508 18.2674 291.647 18.2674 270.267V176.088H115.694V260.118C115.694 275.003 118.129 286.505 123 294.623C128.142 302.742 136.126 308.425 146.951 311.673C157.776 314.65 171.714 316.138 188.763 316.138C204.73 316.138 219.479 313.838 233.011 309.237C246.813 304.366 258.856 298.548 269.14 291.782C279.694 285.016 287.813 278.521 293.496 272.297Z" fill="url(#paint1_linear_1814_1793)"/>
</mask>
<g mask="url(#mask0_1814_1793)">
<rect x="-411.363" y="-555.912" width="1311.61" height="1311.61" fill="url(#paint2_linear_1814_1793)"/>
</g>
<defs>
<linearGradient id="paint0_linear_1814_1793" x1="347.337" y1="75.6523" x2="347.337" y2="177.405" gradientUnits="userSpaceOnUse">
<stop stop-color="#FF59C7"/>
<stop offset="0.0001" stop-color="#FF59C7"/>
<stop offset="1" stop-color="#FF00A9"/>
</linearGradient>
<linearGradient id="paint1_linear_1814_1793" x1="207.692" y1="0" x2="45.6005" y2="450.709" gradientUnits="userSpaceOnUse">
<stop stop-color="#FF59C7"/>
<stop offset="0.0001" stop-color="#FF59C7"/>
<stop offset="1" stop-color="#C60083"/>
</linearGradient>
<linearGradient id="paint2_linear_1814_1793" x1="-232.508" y1="603.669" x2="330.142" y2="41.0186" gradientUnits="userSpaceOnUse">
<stop/>
<stop offset="0.800629" stop-color="#DDDDDD"/>
<stop offset="1" stop-color="white"/>
</linearGradient>
</defs>
</svg>
