<svg width="597" height="109" viewBox="0 0 597 109" fill="none" xmlns="http://www.w3.org/2000/svg">
<path d="M84.4675 84.0146H63.1955V40.5844H84.4675V84.0146ZM64.0818 61.5904L64.2591 65.8448C64.0818 67.0857 63.4909 68.5334 62.4864 70.1879C61.541 71.8424 60.2115 73.5559 58.4979 75.3286C56.7844 77.1013 54.6867 78.7557 52.205 80.2921C49.7232 81.7693 46.887 82.9806 43.6962 83.926C40.5054 84.8714 36.9601 85.3441 33.0602 85.3441C29.1603 85.3441 25.4673 84.9305 21.981 84.1033C18.4948 83.3351 15.3926 82.0352 12.6746 80.2034C9.95647 78.3717 7.82927 75.9195 6.29296 72.8469C4.75665 69.7152 3.9885 65.8153 3.9885 61.1473V40.5844H25.2605V58.9314C25.2605 62.1813 25.7923 64.6926 26.8559 66.4653C27.9786 68.2379 29.7217 69.4788 32.0852 70.1879C34.4488 70.8378 37.4919 71.1628 41.2145 71.1628C44.7007 71.1628 47.921 70.6606 50.8755 69.6561C53.889 68.5925 56.5185 67.3221 58.7638 65.8448C61.0683 64.3676 62.841 62.9495 64.0818 61.5904ZM92.4486 40.5844H113.721V84.0146H92.4486V40.5844ZM145.629 39.2549C149.115 39.2549 152.483 39.6389 155.733 40.4071C158.983 41.1162 161.878 42.357 164.419 44.1297C167.019 45.9024 169.087 48.325 170.623 51.3976C172.159 54.4702 172.928 58.3406 172.928 63.0086V84.0146H151.656V65.6676C151.656 61.2359 150.503 58.1042 148.199 56.2724C145.894 54.3816 141.729 53.4362 135.702 53.4362C132.511 53.4362 129.409 53.7907 126.395 54.4998C123.441 55.2088 120.782 56.0656 118.418 57.0701C116.055 58.0156 114.193 58.961 112.834 59.9064L112.657 56.5383C112.893 55.4747 113.691 53.9975 115.05 52.1067C116.468 50.1568 118.507 48.2068 121.166 46.2569C123.825 44.307 127.163 42.6525 131.181 41.2934C135.258 39.9344 140.074 39.2549 145.629 39.2549ZM203.772 39.2549C207.258 39.2549 210.626 39.6389 213.876 40.4071C217.126 41.1162 220.021 42.357 222.562 44.1297C225.162 45.9024 227.23 48.325 228.767 51.3976C230.303 54.4702 231.071 58.3406 231.071 63.0086V84.0146H209.799V65.6676C209.799 61.2359 208.647 58.1042 206.342 56.2724C204.038 54.3816 199.872 53.4362 193.845 53.4362C190.654 53.4362 187.552 53.7907 184.539 54.4998C181.584 55.2088 178.925 56.0656 176.562 57.0701C174.198 58.0156 172.337 58.961 170.978 59.9064L170.8 55.652C171.037 54.7657 171.923 53.4362 173.459 51.6635C174.996 49.8909 177.152 48.0591 179.93 46.1683C182.766 44.2774 186.163 42.6525 190.122 41.2934C194.14 39.9344 198.69 39.2549 203.772 39.2549ZM271.248 85.2555C264.867 85.2555 259.194 84.3692 254.231 82.5965C249.267 80.7648 245.338 78.1353 242.442 74.7082C239.606 71.281 238.188 67.1448 238.188 62.2995C238.188 57.2179 239.606 52.9635 242.442 49.5363C245.338 46.1092 249.267 43.5388 254.231 41.8252C259.194 40.1117 264.867 39.2549 271.248 39.2549C278.339 39.2549 284.454 40.2298 289.595 42.1798C294.795 44.0706 298.784 46.7591 301.561 50.2454C304.397 53.6725 305.815 57.6906 305.815 62.2995C305.815 65.7267 305.017 68.8584 303.422 71.6946C301.827 74.4718 299.522 76.8944 296.509 78.9626C293.495 80.9716 289.861 82.5374 285.607 83.6601C281.352 84.7237 276.566 85.2555 271.248 85.2555ZM279.225 71.7833C283.716 71.7833 287.823 71.5174 291.545 70.9856C295.327 70.3947 298.34 69.4197 300.586 68.0607C302.89 66.7016 304.042 64.7812 304.042 62.2995C304.042 59.7587 302.89 57.8088 300.586 56.4497C298.34 55.0907 295.327 54.1452 291.545 53.6135C287.823 53.0817 283.716 52.8158 279.225 52.8158C273.198 52.8158 268.53 53.6135 265.221 55.2088C261.912 56.7452 260.258 59.1087 260.258 62.2995C260.258 64.3676 260.996 66.1107 262.473 67.5289C263.951 68.947 266.107 70.0106 268.944 70.7197C271.78 71.4287 275.207 71.7833 279.225 71.7833ZM304.042 40.5844H325.314V84.0146H305.283C305.283 84.0146 305.165 83.3351 304.929 81.9761C304.752 80.617 304.545 78.6671 304.308 76.1263C304.131 73.5855 304.042 70.6015 304.042 67.1743V40.5844ZM333.334 40.5844H354.606V84.0146H333.334V40.5844ZM386.514 39.2549C390 39.2549 393.368 39.6389 396.618 40.4071C399.868 41.1162 402.763 42.357 405.304 44.1297C407.904 45.9024 409.972 48.325 411.508 51.3976C413.044 54.4702 413.813 58.3406 413.813 63.0086V84.0146H392.541V65.6676C392.541 61.2359 391.388 58.1042 389.084 56.2724C386.779 54.3816 382.614 53.4362 376.587 53.4362C373.396 53.4362 370.294 53.7907 367.28 54.4998C364.326 55.2088 361.667 56.0656 359.303 57.0701C356.94 58.0156 355.078 58.961 353.719 59.9064L353.542 56.5383C353.778 55.4747 354.576 53.9975 355.935 52.1067C357.353 50.1568 359.392 48.2068 362.051 46.2569C364.71 44.307 368.048 42.6525 372.066 41.2934C376.143 39.9344 380.959 39.2549 386.514 39.2549ZM444.657 39.2549C448.143 39.2549 451.511 39.6389 454.761 40.4071C458.011 41.1162 460.906 42.357 463.447 44.1297C466.047 45.9024 468.115 48.325 469.652 51.3976C471.188 54.4702 471.956 58.3406 471.956 63.0086V84.0146H450.684V65.6676C450.684 61.2359 449.532 58.1042 447.227 56.2724C444.923 54.3816 440.757 53.4362 434.73 53.4362C431.539 53.4362 428.437 53.7907 425.424 54.4998C422.469 55.2088 419.81 56.0656 417.447 57.0701C415.083 58.0156 413.222 58.961 411.863 59.9064L411.685 55.652C411.922 54.7657 412.808 53.4362 414.344 51.6635C415.881 49.8909 418.037 48.0591 420.815 46.1683C423.651 44.2774 427.049 42.6525 431.007 41.2934C435.026 39.9344 439.575 39.2549 444.657 39.2549ZM503.358 17.8056V31.1006H480.846V17.8056H503.358ZM481.466 40.5844H502.738V84.0146H481.466V40.5844ZM512.245 40.5844H533.517V84.0146H512.245V40.5844ZM565.425 39.2549C568.911 39.2549 572.279 39.6389 575.529 40.4071C578.779 41.1162 581.674 42.357 584.215 44.1297C586.815 45.9024 588.883 48.325 590.419 51.3976C591.955 54.4702 592.724 58.3406 592.724 63.0086V84.0146H571.452V65.6676C571.452 61.2359 570.299 58.1042 567.995 56.2724C565.69 54.3816 561.525 53.4362 555.498 53.4362C552.307 53.4362 549.205 53.7907 546.191 54.4998C543.237 55.2088 540.578 56.0656 538.214 57.0701C535.851 58.0156 533.989 58.961 532.63 59.9064L532.453 56.5383C532.689 55.4747 533.487 53.9975 534.846 52.1067C536.264 50.1568 538.303 48.2068 540.962 46.2569C543.621 44.307 546.959 42.6525 550.977 41.2934C555.055 39.9344 559.87 39.2549 565.425 39.2549Z" fill="url(#paint0_linear_762_566)"/>
<path d="M511.114 12.8322C510.507 11.4279 509.633 10.1554 508.539 9.08586C507.445 8.01313 506.155 7.16064 504.739 6.57476C503.27 5.96482 501.696 5.65262 500.106 5.65628C497.875 5.65628 495.699 6.26709 493.808 7.42084C493.355 7.69684 492.925 7.99998 492.518 8.33027C492.111 7.99998 491.681 7.69684 491.229 7.42084C489.337 6.26709 487.161 5.65628 484.93 5.65628C483.324 5.65628 481.768 5.96395 480.297 6.57476C478.877 7.16294 477.596 8.00903 476.497 9.08586C475.402 10.1542 474.527 11.427 473.922 12.8322C473.293 14.2936 472.972 15.8455 472.972 17.4426C472.972 18.9493 473.28 20.5193 473.891 22.1165C474.402 23.4512 475.135 24.8357 476.071 26.2338C477.555 28.4462 479.596 30.7538 482.13 33.0929C486.329 36.9704 490.487 39.6489 490.663 39.7575L491.735 40.4453C492.21 40.7484 492.821 40.7484 493.296 40.4453L494.369 39.7575C494.545 39.6444 498.699 36.9704 502.902 33.0929C505.436 30.7538 507.476 28.4462 508.96 26.2338C509.897 24.8357 510.634 23.4512 511.141 22.1165C511.752 20.5193 512.059 18.9493 512.059 17.4426C512.064 15.8455 511.743 14.2936 511.114 12.8322V12.8322Z" fill="url(#paint1_linear_762_566)"/>
<defs>
<linearGradient id="paint0_linear_762_566" x1="298.5" y1="2.01465" x2="298.5" y2="108.015" gradientUnits="userSpaceOnUse">
<stop stop-color="#FF59C7"/>
<stop offset="1" stop-color="#FF00A9"/>
</linearGradient>
<linearGradient id="paint1_linear_762_566" x1="492.516" y1="5.65625" x2="492.516" y2="40.6726" gradientUnits="userSpaceOnUse">
<stop stop-color="#FF59C7"/>
<stop offset="1" stop-color="#FF00A9"/>
</linearGradient>
</defs>
</svg>
